<?xml version="1.0" standalone="no"?>
<!DOCTYPE svg PUBLIC "-//W3C//DTD SVG 20010904//EN"
 "http://www.w3.org/TR/2001/REC-SVG-20010904/DTD/svg10.dtd">
<svg version="1.0" xmlns="http://www.w3.org/2000/svg"
 width="32.000000pt" height="32.000000pt" viewBox="0 0 32.000000 32.000000"
 preserveAspectRatio="xMidYMid meet">

<g transform="translate(0.000000,32.000000) scale(0.100000,-0.100000)"
fill="#000000" stroke="none">
<path d="M112 235 c-40 -34 -55 -81 -35 -113 14 -23 13 -26 -31 -67 -25 -23
-46 -45 -46 -49 0 -3 68 -6 150 -6 148 0 150 0 140 20 -6 12 -21 20 -35 20
-27 0 -32 9 -15 26 6 6 12 36 14 67 1 31 9 63 16 72 21 25 -9 47 -72 53 -47 4
-58 1 -86 -23z"/>
</g>
</svg>
